<?xml version="1.0" encoding="UTF-8" standalone="no"?>
<!-- Created with Inkscape (http://www.inkscape.org/) -->

<svg
   width="4096"
   height="4096"
   viewBox="0 0 1083.7333 1083.7333"
   version="1.1"
   id="svg1"
   xml:space="preserve"
   inkscape:export-filename="sedna.png"
   inkscape:export-xdpi="1.5"
   inkscape:export-ydpi="1.5"
   inkscape:version="1.3.2 (091e20ef0f, 2023-11-25)"
   sodipodi:docname="sedna.svg"
   xmlns:inkscape="http://www.inkscape.org/namespaces/inkscape"
   xmlns:sodipodi="http://sodipodi.sourceforge.net/DTD/sodipodi-0.dtd"
   xmlns="http://www.w3.org/2000/svg"
   xmlns:svg="http://www.w3.org/2000/svg"><sodipodi:namedview
     id="namedview1"
     pagecolor="#505050"
     bordercolor="#eeeeee"
     borderopacity="1"
     inkscape:showpageshadow="false"
     inkscape:pageopacity="0"
     inkscape:pagecheckerboard="false"
     inkscape:deskcolor="#505050"
     inkscape:document-units="mm"
     labelstyle="default"
     inkscape:zoom="0.088388348"
     inkscape:cx="2941.5642"
     inkscape:cy="2319.3102"
     inkscape:window-width="1920"
     inkscape:window-height="972"
     inkscape:window-x="0"
     inkscape:window-y="36"
     inkscape:window-maximized="1"
     inkscape:current-layer="layer1" /><defs
     id="defs1"><mask
       maskUnits="userSpaceOnUse"
       id="mask3"><path
         style="fill:#3f8d8c;fill-opacity:1;stroke-width:0.264583"
         d="m 0,541.86664 c 0,0 244.51148,8.93659 507.27684,-140.24266 0,0 47.72131,64.82289 135.81944,48.51903 88.09815,-16.30384 214.84897,-105.78243 214.84897,-105.78243 0,0 -75.17022,93.99831 225.78805,45.56019 V 1083.7333 H 0 Z"
         id="path4" /></mask><mask
       maskUnits="userSpaceOnUse"
       id="mask5"><path
         style="fill:#3f8d8c;fill-opacity:1;stroke-width:0.264583"
         d="m 0,541.86664 c 0,0 38.748221,7.67641 301.51356,-141.50284 0,0 40.20994,57.46242 128.30807,41.15855 88.09815,-16.30386 301.97883,-77.50132 301.97883,-77.50132 0,0 2.64581,118.42689 89.21501,121.84541 75.56275,2.98389 122.45409,-73.37073 262.71783,-95.94567 V 1083.7333 H 0 Z"
         id="path6"
         sodipodi:nodetypes="ccscscccc" /></mask><clipPath
       clipPathUnits="userSpaceOnUse"
       id="clipPath9"><circle
         style="fill:#367a78;fill-opacity:1;stroke-width:0.316643"
         id="circle10"
         cx="541.86664"
         cy="541.86664"
         r="483.8866" /></clipPath><clipPath
       clipPathUnits="userSpaceOnUse"
       id="clipPath11"><circle
         style="fill:#367a78;fill-opacity:1;stroke-width:0.316643"
         id="circle12"
         cx="541.86664"
         cy="541.86664"
         r="483.8866" /></clipPath><clipPath
       clipPathUnits="userSpaceOnUse"
       id="clipPath13"><circle
         style="fill:#367a78;fill-opacity:1;stroke-width:0.316643"
         id="circle14"
         cx="541.86664"
         cy="541.86664"
         r="483.8866" /></clipPath><clipPath
       clipPathUnits="userSpaceOnUse"
       id="clipPath16"><circle
         style="fill:#367a78;fill-opacity:1;stroke-width:0.316643"
         id="circle17"
         cx="541.86664"
         cy="541.86664"
         r="483.8866" /></clipPath><clipPath
       clipPathUnits="userSpaceOnUse"
       id="clipPath18"><circle
         style="fill:#367a78;fill-opacity:1;stroke-width:0.316643"
         id="circle19"
         cx="541.86664"
         cy="541.86664"
         r="483.8866" /></clipPath><clipPath
       clipPathUnits="userSpaceOnUse"
       id="clipPath20"><circle
         style="fill:#367a78;fill-opacity:1;stroke-width:0.316643"
         id="circle21"
         cx="541.86664"
         cy="541.86664"
         r="483.8866" /></clipPath></defs><g
     inkscape:label="Layer 1"
     inkscape:groupmode="layer"
     id="layer1"><g
       id="g27"><g
         id="g26"
         transform="matrix(0.94729546,0,0,0.94729546,28.558831,28.55884)"><circle
           style="fill:#80ed99;fill-opacity:1;stroke-width:0.354583"
           id="circle1"
           cx="541.86664"
           cy="541.86664"
           r="541.86664" /><path
           style="fill:#57cc99;fill-opacity:1;stroke-width:0.264583"
           d="M 307.93158,258.49399 C 446.18465,288.30325 428.07651,420.53928 679.17789,448.58767 930.27925,476.6361 1083.7333,342.3793 1083.7333,342.3793 v 741.354 H 0 L -16.362494,400.30922 c 0,0 186.040994,-171.62448 324.294074,-141.81523 z"
           id="path14"
           sodipodi:nodetypes="ssccccs"
           clip-path="url(#clipPath20)"
           transform="matrix(1.1198216,0,0,1.1198216,-64.927321,-64.92731)" /><path
           style="fill:#38a3a5;fill-opacity:1;stroke-width:0.264583"
           d="m 764.64957,290.2523 c -190.54068,0 -312.35756,159.52325 -492.27661,157.62476 C 177.19463,446.87275 0,420.37114 0,420.37114 V 1161.7251 H 1083.7333 V 371.27702 c 0,0 -128.54305,-81.02472 -319.08373,-81.02472 z"
           id="path15"
           sodipodi:nodetypes="zsccccz"
           clip-path="url(#clipPath18)"
           transform="matrix(1.1198216,0,0,1.1198216,-64.927295,-64.92731)" /><path
           style="fill:#256384;fill-opacity:1;stroke-width:0.264583"
           d="M 775.80172,404.37897 C 604.81485,436.5654 533.84803,729.37836 323.24236,729.37836 70.579331,729.37836 0,493.90538 0,493.90538 V 1235.2593 H 1083.7333 V 486.75806 c 0,0 -168.94241,-108.5423 -307.93158,-82.37909 z"
           id="path16"
           sodipodi:nodetypes="ssccccs"
           clip-path="url(#clipPath16)"
           transform="matrix(1.1198216,0,0,1.1198216,-64.927321,-64.92731)" /></g><path
         id="path22"
         style="fill:#1a1a1a;fill-opacity:1;stroke-width:1.67489"
         d="M 541.86661,0 C 398.15464,1.1050687e-5 260.32875,57.089376 158.70905,158.70909 57.089354,260.3288 5.350679e-6,398.1547 1.2330224e-5,541.86667 7.025894e-6,685.57863 57.089356,823.40453 158.70905,925.02424 c 101.6197,101.61966 239.4456,158.70906 383.15756,158.70906 143.71198,0 281.53789,-57.0893 383.1576,-158.70903 101.61969,-101.61971 158.70909,-239.44562 158.70909,-383.1576 0,-143.71198 -57.0894,-281.53789 -158.70909,-383.1576 C 823.4045,57.089349 685.57859,-7.956494e-6 541.86661,0 Z m -127.7912,205.34199 c 4.7612,-0.0518 9.5113,0.0122 14.2452,0.19017 103.6532,3.89324 199.5713,62.73643 228.633,171.20195 -17.2827,-29.84287 -67.3742,-40.93859 -67.3742,-40.93859 111.95116,108.20958 -87.4435,195.9611 -47.7133,84.02227 3.5195,56.69504 77.2429,-24.65867 -9.5457,-48.77791 -234.98777,-52.1452 -228.7948,193.08228 -228.7948,193.08228 -2.5657,247.34098 383.03501,247.32082 383.03501,247.32082 C 451.55991,728.09304 419.95931,595.6422 419.95931,595.6422 c 0,111.3634 128.7632,181.45869 128.7632,181.45869 -332.8435,-110.16821 -205.2834,-353.50173 -79.777,-349.31667 -56.0727,51.14164 -34.5863,163.38306 120.1761,208.86684 16.4305,-94.78469 113.48033,77.60978 187.05318,67.14526 -36.88833,-54.36268 11.30587,-30.39035 25.96017,-92.80261 14.65431,-62.41219 57.66935,65.68807 110.70591,44.72234 40.55247,-16.03151 74.39545,47.52371 74.39545,47.52371 0,17.62446 -11.34865,34.76532 -11.34865,34.76532 -70.3983,15.61031 -101.09978,-36.69595 -101.09978,-36.69595 8.83566,74.01276 87.68302,74.50915 87.68302,74.50915 0,0 3.01468,10.38122 -48.55259,69.31205 -102.91415,117.6106 -357.47641,5.11958 -357.47641,5.11958 163.32537,94.29582 261.48899,67.91679 261.48899,67.91679 -99.30945,88.2822 -276.06479,90.333 -276.06479,90.333 0,0 -226.702,19.8996 -390.2796,-204.30073 -163.576797,-224.20032 -36.9956,-422.20472 -36.9956,-422.20472 -48.012197,134.36144 -5.7893,175.21825 -5.7893,175.21825 0,-238.00505 157.689,-350.2602 305.2738,-351.87051 z m 42.5948,50.80362 c 0,0 -342.4783,32.94455 -192.0079,360.81673 0,0 -46.5281,-237.95699 176.8326,-296.31369 0,0 -53.3117,-13.46447 -134.4527,48.45699 0,0 0,-50.18522 149.628,-112.96003 z m -296.3989,279.22585 c 0,0 -91.630397,336.36317 340.5895,334.40491 -274.2039,-72.14258 -299.2312,-274.11184 -298.5166,-304.42793 -12.373,97.35009 14.3366,141.94327 14.3366,141.94327 -44.8241,-45.76039 -56.4095,-171.92025 -56.4095,-171.92025 z m 393.4824,153.60561 c 0,0 100.351,151.88952 362.12057,109.58452 0,0 -237.78494,-19.19315 -271.03717,-93.59532 0,0 -1.9741,27.48108 30.07203,47.53767 0,0 -49.33963,-9.68191 -121.15543,-63.52687 z"
         sodipodi:nodetypes="ssssssssscccccccccccccscccccccccccccccccccccccccccc" /></g></g></svg>
